<?xml version="1.0" ?><!-- Uploaded to: SVG Repo, www.svgrepo.com, Generator: SVG Repo Mixer Tools -->
<svg width="800px" height="800px" viewBox="0 0 24 24" fill="none" xmlns="http://www.w3.org/2000/svg"><path d="M4.00003 21V18.5C4.00003 15.4624 6.46246 13 9.50003 13H14.5C17.5376 13 20 15.4624 20 18.5V21M8.00003 21V18M16 21V18M4.37966 11.5L6.37966 9.5M4.37966 11.5L2.12042 9.5M4.37966 11.5V7M16 6.5C16 8.70914 14.2092 10.5 12 10.5C9.79089 10.5 8.00003 8.70914 8.00003 6.5C8.00003 4.29086 9.79089 2.5 12 2.5C14.2092 2.5 16 4.29086 16 6.5Z" stroke="#000000" stroke-linecap="round" stroke-linejoin="round" stroke-width="1.4"/></svg>